<?xml version="1.0" encoding="UTF-8"?>
<svg width="256" height="256" version="1.1" viewBox="0 0 67.733 67.733" xmlns="http://www.w3.org/2000/svg" xmlns:xlink="http://www.w3.org/1999/xlink"><defs><linearGradient id="a"><stop stop-color="#fff" stop-opacity="0" offset="0"/><stop stop-color="#fff" offset=".25"/><stop stop-color="#fff" stop-opacity=".49804" offset=".5"/><stop stop-color="#fff" offset=".75"/><stop stop-color="#fff" stop-opacity="0" offset="1"/></linearGradient><linearGradient id="b"><stop stop-color="#fff" stop-opacity="0" offset="0"/><stop stop-color="#fff" offset=".5"/><stop stop-color="#fff" stop-opacity="0" offset="1"/></linearGradient><linearGradient id="c"><stop stop-color="#999" offset="0"/><stop stop-color="#fff" offset=".13437"/><stop stop-color="#b3b3b3" offset=".26873"/><stop stop-color="#999" offset=".31728"/><stop stop-color="#fff" offset=".56728"/><stop stop-color="#b3b3b3" offset=".78364"/><stop stop-color="#fff" offset=".80094"/><stop stop-color="#d8d8d8" offset=".89182"/><stop stop-color="#808080" offset="1"/></linearGradient><filter id="q" color-interpolation-filters="sRGB"><feGaussianBlur stdDeviation="1.5396979"/></filter><radialGradient id="e" cx="365.68" cy="283.35" r="145.23" gradientTransform="matrix(1.0575 0 -3.6532e-6 .14946 -21.023 215.38)" gradientUnits="userSpaceOnUse"><stop stop-color="#4d4d4d" offset="0"/><stop stop-color="#999" offset=".5"/><stop stop-color="#b3b3b3" stop-opacity=".017964" offset="1"/></radialGradient><linearGradient id="p" x1="314.59" x2="379.59" y1="287.98" y2="286.61" gradientTransform="translate(0,308)" gradientUnits="userSpaceOnUse" xlink:href="#a"/><linearGradient id="o" x1="199.69" x2="457.78" y1="267.04" y2="267.04" gradientTransform="matrix(.9961 0 0 1 .78147 307.99)" gradientUnits="userSpaceOnUse" xlink:href="#c"/><linearGradient id="n" x1="225.91" x2="516.17" y1="252.35" y2="252.35" gradientUnits="userSpaceOnUse"><stop stop-color="#666" offset="0"/><stop stop-color="#808080" offset=".25"/><stop stop-color="#b3b3b3" offset=".5"/><stop stop-color="#ccc" offset=".75"/><stop stop-color="#808080" offset="1"/></linearGradient><linearGradient id="m" x1="203.3" x2="454.62" y1="255.07" y2="252.54" gradientTransform="translate(0,308)" gradientUnits="userSpaceOnUse" xlink:href="#b"/><linearGradient id="l" x1="472.44" x2="719.45" y1="385.67" y2="383.28" gradientTransform="translate(-268.7,34.686)" gradientUnits="userSpaceOnUse"><stop stop-color="#999" offset="0"/><stop stop-color="#666" offset=".31311"/><stop stop-color="#999" offset=".4443"/><stop stop-color="#ccc" offset=".57549"/><stop stop-color="#808080" offset=".80041"/><stop stop-color="#ccc" offset=".9002"/><stop stop-color="#666" offset="1"/></linearGradient><linearGradient id="k" x1="314.59" x2="379.59" y1="287.98" y2="286.61" gradientUnits="userSpaceOnUse" xlink:href="#a"/><linearGradient id="j" x1="199.69" x2="457.78" y1="267.04" y2="267.04" gradientTransform="matrix(.9961 0 0 1 .78147 -.0064509)" gradientUnits="userSpaceOnUse" xlink:href="#c"/><linearGradient id="i" x1="203.3" x2="454.62" y1="255.07" y2="252.54" gradientUnits="userSpaceOnUse" xlink:href="#b"/><linearGradient id="h" x1="203.3" x2="454.62" y1="255.07" y2="252.54" gradientTransform="translate(0,306)" gradientUnits="userSpaceOnUse"><stop stop-color="#b3b3b3" offset="0"/><stop stop-color="#666" stop-opacity=".502" offset=".27987"/><stop stop-color="#808080" offset=".5"/><stop stop-color="#666" offset=".75"/><stop stop-color="#808080" offset="1"/></linearGradient><linearGradient id="g" x1="164.21" x2="267.76" y1="404.95" y2="406.14" gradientUnits="userSpaceOnUse"><stop stop-color="#fff" offset="0"/><stop stop-color="#fff" stop-opacity="0" offset="1"/></linearGradient><linearGradient id="f" x1="314.06" x2="370.17" y1="286.36" y2="286.7" gradientUnits="userSpaceOnUse"><stop stop-color="#fff" stop-opacity="0" offset="0"/><stop stop-color="#fff" stop-opacity=".8024" offset=".26228"/><stop stop-color="#fff" offset=".73781"/><stop stop-color="#fff" stop-opacity="0" offset="1"/></linearGradient><linearGradient id="d" x1="225.91" x2="516.17" y1="252.35" y2="252.35" gradientUnits="userSpaceOnUse" xlink:href="#n"/><radialGradient id="t" cx="63.894" cy="117.35" r="53.91" gradientTransform="matrix(1 0 0 .08642 0 107.21)" gradientUnits="userSpaceOnUse"><stop offset="0"/><stop stop-opacity="0" offset="1"/></radialGradient><radialGradient id="s" cx="64.7" cy="-15.174" r="55.27" gradientTransform="matrix(1.5331 -3.1358e-8 2.4049e-8 1.124 -33.828 2.9909)" gradientUnits="userSpaceOnUse"><stop stop-color="#eee" offset="0"/><stop stop-color="#eee" stop-opacity="0" offset="1"/></radialGradient><linearGradient id="r" x2="0" y1="8.707" y2="120.54" gradientUnits="userSpaceOnUse"><stop stop-color="#f0ff80" offset="0"/><stop stop-color="#8bb300" offset="1"/></linearGradient></defs><g transform="translate(0 -229.27)"><g transform="matrix(.17417 0 0 .17183 -37.654 190.5)"><path transform="matrix(1.0706,0,0,1.5393,-18.67,189.94)" d="m516.18 253.22c0 11.987-65.02 21.705-145.23 21.705-80.206 0-145.23-9.7177-145.23-21.705s65.02-21.705 145.23-21.705c80.206 0 145.23 9.7177 145.23 21.705z" fill="url(#e)" fill-rule="evenodd" filter="url(#q)"/><g transform="translate(43.86)"><path d="m307.87 583.19 77.133-2.0231-16.187 31.502-43.345 1.2644z" fill="url(#p)"/><g fill-rule="evenodd"><path d="m328.19 534.12c-70.417 0-127.5 10.745-127.5 24.001 0 0.22703-2e-3 0.462 0.0311 0.68752h-0.0311v32.001h0.0311c1.9093 12.941 58.259 23.313 127.47 23.313s125.53-10.372 127.44-23.313h0.0623v-32.001h-0.0623c0.0333-0.22552 0.0623-0.46049 0.0623-0.68752 0-13.255-57.084-24.001-127.5-24.001z" fill="url(#o)" stroke="#ccc" stroke-width=".99806"/><path transform="matrix(.84695 0 0 .96752 14.003 314.15)" d="m516.18 253.22c0 11.987-65.02 21.705-145.23 21.705-80.206 0-145.23-9.7177-145.23-21.705s65.02-21.705 145.23-21.705c80.206 0 145.23 9.7177 145.23 21.705z" fill="url(#d)"/><path d="m205.67 558.5c-1.3335 1.2292-2.0312 2.4874-2.0312 3.7812 0 11.598 55.964 21 125 21s125-9.402 125-21c0-1.2886-0.70838-2.5568-2.0312-3.7812 0.0139 0.12982 0.0312 0.27586 0.0312 0.40625 0 11.598-55.069 21-123 21s-123-9.402-123-21c0-0.13103 0.0172-0.27579 0.0312-0.40625z" fill="url(#m)"/></g><path d="m205.19 270.39h246l0.48277 288.11c0.0332 19.825-92.558 23.184-129.71 22.768-53.231-0.59521-116.26-6.8536-116.29-22.768z" fill="url(#l)" opacity=".333"/><path d="m307.87 275.19 77.133-2.0231-16.187 31.502-43.345 1.2644z" fill="url(#k)"/><g fill-rule="evenodd"><path d="m328.19 226.12c-70.417 0-127.5 10.745-127.5 24.001 0 0.22703-2e-3 0.462 0.0311 0.68752h-0.0311v32.001h0.0311c1.9093 12.941 58.259 23.313 127.47 23.313s125.53-10.372 127.44-23.313h0.0623v-32.001h-0.0623c0.0333-0.22552 0.0623-0.46049 0.0623-0.68752 0-13.255-57.084-24.001-127.5-24.001z" fill="url(#j)" stroke="#ccc" stroke-width=".99806"/><path transform="matrix(.84695 0 0 .96752 14.003 6.1465)" d="m516.18 253.22c0 11.987-65.02 21.705-145.23 21.705-80.206 0-145.23-9.7177-145.23-21.705s65.02-21.705 145.23-21.705c80.206 0 145.23 9.7177 145.23 21.705z" fill="url(#d)"/><path d="m205.67 250.5c-1.3335 1.2292-2.0312 2.4874-2.0312 3.7812 0 11.598 55.964 21 125 21s125-9.402 125-21c0-1.2886-0.70838-2.5568-2.0312-3.7812 0.0139 0.12982 0.0312 0.27586 0.0312 0.40625 0 11.598-55.069 21-123 21s-123-9.402-123-21c0-0.13103 0.0172-0.27579 0.0312-0.40625z" fill="url(#i)"/></g><path d="m205.67 556.5c-1.3335 1.2292-2.0312 2.4874-2.0312 3.7812 0 11.598 55.964 21 125 21s125-9.402 125-21c0-1.2886-0.70838-2.5568-2.0312-3.7812 0.0139 0.12982 0.0312 0.27586 0.0312 0.40625 0 11.598-55.069 21-123 21s-123-9.402-123-21c0-0.13103 0.0172-0.27579 0.0312-0.40625z" fill="url(#h)" fill-rule="evenodd"/><path d="m208 295.36-2.4855 266.38c4.1148 8.1158 15.963 9.6964 38.485 14.218l2-272.59z" fill="url(#g)"/><path d="m314.84 275.19c20.649 0.73583 34.124 0.78181 55.325-1.1037l-14.762 30.767c-9.9336 0.64385-17.66 1.0118-26.49 0.68984z" fill="url(#f)"/></g><path d="m323.64 273.63 6.7714 0.40614-0.42975 30.25-6.0682-0.49146z" fill="#808080"/><path d="m324.21 581.68 4.2447 0.25726-1.5269 30.157-2.0654-0.1102z" fill="#808080"/></g><g transform="matrix(.28509 0 0 .28509 32.554 261.23)"><path transform="translate(1.2997 3.4536)" d="m117.8 117.35a53.91 4.6589 0 1 1-107.82 0 53.91 4.6589 0 1 1 107.82 0z" fill="url(#t)" opacity=".443"/><path transform="matrix(1.0119 0 0 1.0267 -2.135 -4.403)" d="m122.09 64.626a56.734 55.919 0 1 1-113.47 0 56.734 55.919 0 1 1 113.47 0z" fill="url(#r)"/><path transform="matrix(1.0119 0 0 1.0267 -2.135 -4.403)" d="m122.09 64.626a56.734 55.919 0 1 1-113.47 0 56.734 55.919 0 1 1 113.47 0z" fill="none" stroke="#638000" stroke-width="3.924"/><path transform="matrix(1.0119 0 0 1.0267 -2.135 -4.403)" d="m65.344 11.219c-29.98 0-54.219 23.916-54.219 53.406s24.239 53.406 54.219 53.406 54.25-23.917 54.25-53.406-24.27-53.406-54.25-53.406z" fill="none" stroke="url(#s)" stroke-width="2.079"/><path d="m43.579 24.791c-0.55548 0.05443-0.97912 0.52126-0.97949 1.0794v29.143l-16.971 0.02c-0.42175-0.0019-0.79949 0.23824-0.9795 0.61963-0.17999 0.3814-0.12965 0.83498 0.13994 1.1593l38.72 46.513c0.20913 0.24918 0.51428 0.38366 0.83957 0.37978 0.32529-4e-3 0.63643-0.14568 0.83957-0.39976l38.04-46.513c0.25715-0.32469 0.29835-0.76555 0.11994-1.1393-0.17841-0.37378-0.54533-0.61532-0.95951-0.61963l-16.971-0.02 0.01999-29.143c-0.0016-0.28926-0.11341-0.55689-0.31984-0.75955-0.20643-0.20266-0.49033-0.32357-0.7796-0.31981h-40.659c-0.0333-0.0015-0.06665-0.0015-0.09995 0z" fill="#555" fill-rule="evenodd" stroke-width="3.393"/></g></g></svg>
